<svg width="14" height="18" viewBox="0 0 14 18" fill="none" xmlns="http://www.w3.org/2000/svg">
<path d="M6.67904 8.13776C6.5957 8.12943 6.4957 8.12943 6.40404 8.13776C4.4207 8.07109 2.8457 6.44609 2.8457 4.44609C2.8457 2.40443 4.4957 0.746094 6.5457 0.746094C8.58737 0.746094 10.2457 2.40443 10.2457 4.44609C10.2374 6.44609 8.66237 8.07109 6.67904 8.13776Z" stroke="#F25C92" stroke-width="1.5" stroke-linecap="round" stroke-linejoin="round"/>
<path d="M2.5125 11.2126C0.495833 12.5626 0.495833 14.7626 2.5125 16.1043C4.80417 17.6376 8.5625 17.6376 10.8542 16.1043C12.8708 14.7543 12.8708 12.5543 10.8542 11.2126C8.57083 9.6876 4.8125 9.6876 2.5125 11.2126Z" stroke="#F25C92" stroke-width="1.5" stroke-linecap="round" stroke-linejoin="round"/>
</svg>
